<svg width="220" height="50" viewBox="0 0 220 50" fill="none" xmlns="http://www.w3.org/2000/svg">
<g filter="url(#filter0_i_4_364)">
<path fill-rule="evenodd" clip-rule="evenodd" d="M89.8458 3.39915C90.3729 2.60293 91.235 2.1678 92.1166 2.16797C92.5823 2.16806 93.0535 2.28961 93.4836 2.54357C94.7302 3.2796 95.207 4.87679 94.5751 6.19939L87.4547 21.1015C87.4547 21.1015 94.7923 20.0491 95.5875 19.9896C95.8538 19.9697 96.1779 19.9483 96.5288 19.9486C97.2259 19.9493 98.0284 20.0359 98.6917 20.3907C100.994 21.6225 101.794 24.5917 100.434 26.8559L87.4542 48.4575C86.9394 49.3142 86.0417 49.7927 85.1179 49.7925C84.6893 49.7924 84.2551 49.6893 83.8509 49.4731C82.5777 48.792 82.0355 47.2205 82.6088 45.8731L89.5812 29.4864L80.7059 31.4342C80.5919 31.4592 80.478 31.4797 80.3644 31.4956C80.1306 31.5338 79.8934 31.5532 79.655 31.5532C78.8965 31.5529 78.1265 31.3554 77.4189 30.9376C75.9032 30.0427 75.1009 28.3899 75.1813 26.7329C75.2131 25.5534 76.3394 23.8016 76.4498 23.6357C76.5602 23.4697 89.8458 3.39915 89.8458 3.39915Z" fill="#D19700"/>
</g>
<path d="M99.95 20.3906C102.253 21.6224 103.053 24.5916 101.692 26.8558H100.434C101.794 24.5916 100.994 21.6224 98.6914 20.3906H99.95Z" fill="#D19700"/>
<path d="M97.782 19.9414C98.4791 19.9421 99.2816 20.0285 99.9448 20.3828H98.6863C98.023 20.0285 97.2205 19.9421 96.5234 19.9414H97.782Z" fill="#D19700"/>
<path d="M97.769 19.9414C97.7746 19.9414 97.7802 19.9414 97.7858 19.9414H97.769C97.4246 19.9417 97.1065 19.9625 96.8445 19.9817H95.5859C95.8522 19.9621 96.1764 19.9411 96.5273 19.9414H97.769Z" fill="#D19700"/>
<path d="M94.7351 2.53906C95.9817 3.27509 96.4586 4.87228 95.8266 6.19489H94.568C95.2 4.87228 94.7231 3.27509 93.4766 2.53906H94.7351Z" fill="#D19700"/>
<path d="M101.699 26.8555L88.7195 48.457H87.4609L100.441 26.8555H101.699Z" fill="#D19700"/>
<path d="M93.3875 2.16797C93.8532 2.16806 94.3244 2.28942 94.7545 2.54298H93.4959C93.0658 2.28942 92.5946 2.16806 92.1289 2.16797H93.3875Z" fill="#D19700"/>
<path d="M88.7195 21.0903C88.7195 21.0903 96.0571 20.0396 96.8523 19.9802H95.5938C94.7985 20.0396 87.4609 21.0903 87.4609 21.0903H88.7195Z" fill="#D19700"/>
<path d="M95.8399 6.20093L88.7195 21.103H87.4609L94.5813 6.20093H95.8399Z" fill="#D19700"/>
<path d="M88.7121 48.457C88.1973 49.3124 87.2996 49.7902 86.3758 49.79H85.1184C86.0418 49.7898 86.9389 49.312 87.4535 48.457H88.7121Z" fill="#D19700"/>
<path d="M90.837 29.4727L81.9617 31.4205H80.7031L89.5784 29.4727H90.837Z" fill="#D19700"/>
<path fill-rule="evenodd" clip-rule="evenodd" d="M83.8758 45.879L90.8481 29.4922H89.5896L82.6172 45.8789H82.6108C82.0375 47.2263 82.5797 48.7977 83.8529 49.4788H83.8592C84.2602 49.6905 84.6902 49.7915 85.1147 49.7916H86.3733C85.9447 49.7915 85.5104 49.6885 85.1062 49.4727H85.1C83.835 48.7883 83.2978 47.2223 83.8694 45.879H83.8758Z" fill="url(#paint0_linear_4_364)"/>
<path d="M81.9516 31.4258C81.8376 31.4504 81.7237 31.4705 81.6101 31.4862H80.3516C80.4652 31.4705 80.579 31.4504 80.693 31.4258H81.9516Z" fill="#D19700"/>
<path d="M81.6164 31.4844C81.3826 31.5219 81.1454 31.5411 80.907 31.541H79.6509C79.6501 31.541 79.6493 31.541 79.6484 31.541H79.6509C79.8884 31.5409 80.1248 31.5218 80.3578 31.4844H81.6164Z" fill="#D19700"/>
<path d="M79.6509 31.541C79.6501 31.541 79.6493 31.541 79.6484 31.541H79.6509Z" fill="#D19700"/>
<path fill-rule="evenodd" clip-rule="evenodd" d="M91.1075 3.38934C91.6348 2.59984 92.4936 2.16838 93.3719 2.16821H92.1143C91.2327 2.16804 90.3706 2.60249 89.8435 3.39747H89.8552C89.5525 3.85471 76.5737 23.4618 76.4646 23.6259H77.7232C77.8336 23.4599 91.1192 3.38934 91.1192 3.38934H91.1075ZM76.4396 26.748C76.3592 28.405 77.1615 30.0578 78.6772 30.9527H77.4186C75.903 30.0578 75.1006 28.405 75.181 26.748H76.4396ZM78.6801 30.957C79.3878 31.3742 80.1578 31.5714 80.9163 31.5716H79.6577C78.8992 31.5714 78.1292 31.3742 77.4216 30.957H78.6801ZM76.4536 26.7308C76.4855 25.5513 77.6117 23.7996 77.7221 23.6336H76.4636C76.3532 23.7996 75.2269 25.5513 75.1951 26.7308H76.4536Z" fill="url(#paint1_linear_4_364)"/>
<path fill-rule="evenodd" clip-rule="evenodd" d="M91.1153 3.39915C91.9208 2.18233 93.5088 1.80885 94.7531 2.54357C95.9997 3.2796 96.4766 4.87679 95.8446 6.19939L88.7242 21.1015C88.7242 21.1015 96.0618 20.0491 96.857 19.9896C97.6522 19.9301 98.9641 19.8573 99.9612 20.3907C102.264 21.6225 103.064 24.5917 101.703 26.8559L88.7237 48.4575C87.9701 49.7116 86.3959 50.1553 85.1204 49.4731C83.8472 48.792 83.305 47.2205 83.8783 45.8731L90.8507 29.4864L81.9754 31.4342C81.8614 31.4592 81.7475 31.4797 81.6339 31.4956C80.656 31.6553 79.6184 31.4867 78.6884 30.9376C77.1727 30.0427 76.3704 28.3899 76.4508 26.7329C76.4827 25.5534 77.6089 23.8016 77.7193 23.6357C77.8297 23.4697 91.1153 3.39915 91.1153 3.39915Z" fill="#F2BE5A"/>
<path fill-rule="evenodd" clip-rule="evenodd" d="M91.4473 3.02805C92.2528 1.81124 93.8408 1.43776 95.0852 2.17248C96.3317 2.90851 96.8086 4.5057 96.1766 5.8283L89.0562 20.7304C89.0562 20.7304 96.3938 19.678 97.1891 19.6185C97.9843 19.5591 99.2961 19.4862 100.293 20.0196C102.596 21.2514 103.396 24.2206 102.036 26.4848L89.0558 48.0864C88.3022 49.3406 86.7279 49.7843 85.4525 49.102C84.1793 48.4209 83.6371 46.8495 84.2104 45.5021L91.1828 29.1153L82.3075 31.0631C82.1935 31.0881 82.0796 31.1086 81.966 31.1245C80.988 31.2842 79.9505 31.1156 79.0204 30.5665C77.5048 29.6716 76.7024 28.0188 76.7829 26.3618C76.8147 25.1823 77.9409 23.4306 78.0514 23.2646C78.1618 23.0986 91.4473 3.02805 91.4473 3.02805Z" fill="#F2BE5A"/>
<path d="M42.5675 43.8213C40.3323 45.7436 37.8288 47.2189 35.0572 48.2471C32.2855 49.2753 29.4132 49.7894 26.4404 49.7894C24.1605 49.7894 21.9588 49.4876 19.8354 48.8841C17.7343 48.3029 15.7561 47.4759 13.9009 46.403C12.068 45.3078 10.3916 44.0002 8.87164 42.4802C7.3517 40.9603 6.0441 39.2839 4.94885 37.451C3.87595 35.5958 3.03774 33.6176 2.43423 31.5165C1.85308 29.393 1.5625 27.1914 1.5625 24.9114C1.5625 22.6315 1.85308 20.4298 2.43423 18.3064C3.03774 16.1829 3.87595 14.2048 4.94885 12.3719C6.0441 10.5167 7.3517 8.82909 8.87164 7.30914C10.3916 5.7892 12.068 4.49278 13.9009 3.41987C15.7561 2.32462 17.7343 1.48642 19.8354 0.905261C21.9588 0.301754 24.1605 0 26.4404 0C29.4132 0 32.2855 0.514099 35.0572 1.5423C36.4809 2.05896 37.8338 2.69947 39.1159 3.46383C41.2347 4.72693 41.6307 7.50882 40.3492 9.61651C38.9063 11.9897 35.5411 12.2799 33.0241 11.1057C32.8436 11.0215 32.6607 10.9407 32.4755 10.8631C30.5532 10.0361 28.5415 9.62259 26.4404 9.62259C24.317 9.62259 22.3276 10.0249 20.4724 10.8296C18.6172 11.6343 16.9966 12.7295 15.6108 14.1154C14.225 15.4788 13.1297 17.0994 12.325 18.977C11.5204 20.8322 11.118 22.8103 11.118 24.9114C11.118 27.0125 11.5204 28.9907 12.325 30.8459C13.1297 32.6788 14.225 34.2882 15.6108 35.674C16.9966 37.0598 18.6172 38.1551 20.4724 38.9597C22.3276 39.7644 24.317 40.1668 26.4404 40.1668C28.5415 40.1668 30.5532 39.7644 32.4755 38.9597C34.3978 38.1327 36.063 36.9592 37.4712 35.4393L42.5675 43.8213Z" fill="white"/>
<path d="M73.0893 30.4771C73.0893 33.1594 72.6087 35.6628 71.6476 37.9874C70.6865 40.2897 69.3789 42.2902 67.7248 43.989C66.0707 45.6654 64.1261 46.9953 61.8909 47.9788C59.678 48.94 57.2975 49.4205 54.7494 49.4205C52.2236 49.4205 49.8431 48.94 47.6079 47.9788C45.395 46.9953 43.4504 45.6654 41.774 43.989C40.1199 42.2902 38.8123 40.2897 37.8512 37.9874C36.89 35.6628 36.4095 33.1594 36.4095 30.4771C36.4095 27.7502 36.89 25.2244 37.8512 22.8997C38.8123 20.5751 40.1199 18.5746 41.774 16.8982C43.4504 15.1994 45.395 13.8695 47.6079 12.9084C49.8431 11.9472 52.2236 11.4666 54.7494 11.4666C57.2975 11.4666 59.678 11.9249 61.8909 12.8413C64.1261 13.7354 66.0707 15.0206 67.7248 16.697C69.3789 18.3511 70.6865 20.3516 71.6476 22.6986C72.6087 25.0232 73.0893 27.616 73.0893 30.4771ZM63.869 30.4771C63.869 29.0019 63.6232 27.6719 63.1314 26.4873C62.662 25.2803 62.0138 24.2521 61.1868 23.4027C60.3598 22.5309 59.3875 21.8716 58.2698 21.4245C57.1746 20.9551 56.0011 20.7204 54.7494 20.7204C53.4977 20.7204 52.313 20.9551 51.1954 21.4245C50.1001 21.8716 49.139 22.5309 48.312 23.4027C47.5073 24.2521 46.8703 25.2803 46.4009 26.4873C45.9315 27.6719 45.6968 29.0019 45.6968 30.4771C45.6968 31.863 45.9315 33.1482 46.4009 34.3329C46.8703 35.5175 47.5073 36.5457 48.312 37.4175C49.139 38.2892 50.1001 38.9821 51.1954 39.4962C52.313 39.9879 53.4977 40.2338 54.7494 40.2338C56.0011 40.2338 57.1746 39.9991 58.2698 39.5297C59.3875 39.0603 60.3598 38.4009 61.1868 37.5516C62.0138 36.7022 62.662 35.674 63.1314 34.467C63.6232 33.26 63.869 31.93 63.869 30.4771Z" fill="white"/>
<path d="M113.858 45.3215C113.858 47.7892 111.858 49.7896 109.39 49.7896C106.922 49.7896 104.922 47.7892 104.922 45.3215V16.2336C104.922 15.4147 105.586 14.7508 106.405 14.7508C106.835 14.7508 107.244 14.9377 107.526 15.263L110.028 18.1533C111.469 16.8446 113.094 15.8413 114.905 15.1434C116.739 14.4236 118.648 14.0638 120.634 14.0638C122.772 14.0638 124.791 14.4782 126.689 15.307C128.588 16.114 130.246 17.2372 131.665 18.6767C133.083 20.0944 134.196 21.7629 135.004 23.6823C135.833 25.5798 136.248 27.6082 136.248 29.7674V45.3215C136.248 47.7892 134.247 49.7896 131.779 49.7896C129.312 49.7896 127.311 47.7892 127.311 45.3215V29.7674C127.311 28.8514 127.137 27.9899 126.788 27.1829C126.438 26.3541 125.958 25.6343 125.347 25.0236C124.736 24.4129 124.027 23.9331 123.22 23.5841C122.412 23.2351 121.55 23.0606 120.634 23.0606C119.695 23.0606 118.812 23.2351 117.982 23.5841C117.153 23.9331 116.433 24.4129 115.822 25.0236C115.211 25.6343 114.731 26.3541 114.382 27.1829C114.033 27.9899 113.858 28.8514 113.858 29.7674V45.3215Z" fill="white"/>
<path d="M150.258 5.95455C150.258 6.78336 150.094 7.55763 149.767 8.27738C149.461 8.99714 149.036 9.62965 148.49 10.1749C147.945 10.6984 147.301 11.1237 146.559 11.4508C145.839 11.7562 145.064 11.9089 144.235 11.9089C143.406 11.9089 142.62 11.7562 141.878 11.4508C141.158 11.1237 140.525 10.6984 139.98 10.1749C139.456 9.62965 139.03 8.99714 138.703 8.27738C138.398 7.55763 138.245 6.78336 138.245 5.95455C138.245 5.14756 138.398 4.38418 138.703 3.66443C139.03 2.92287 139.456 2.29036 139.98 1.76691C140.525 1.22164 141.158 0.796333 141.878 0.490984C142.62 0.163824 143.406 0.000244141 144.235 0.000244141C145.064 0.000244141 145.839 0.163824 146.559 0.490984C147.301 0.796333 147.945 1.22164 148.49 1.76691C149.036 2.29036 149.461 2.92287 149.767 3.66443C150.094 4.38418 150.258 5.14756 150.258 5.95455ZM148.719 45.2888C148.719 47.7745 146.704 49.7896 144.218 49.7896C141.732 49.7896 139.717 47.7745 139.717 45.2888V19.2516C139.717 16.7659 141.732 14.7508 144.218 14.7508C146.704 14.7508 148.719 16.7659 148.719 19.2516V45.2888Z" fill="white"/>
<path d="M161.223 45.3215C161.223 47.7892 159.223 49.7896 156.755 49.7896C154.287 49.7896 152.287 47.7892 152.287 45.3215V16.2336C152.287 15.4147 152.951 14.7508 153.77 14.7508C154.2 14.7508 154.609 14.9377 154.891 15.263L157.393 18.1533C158.833 16.8446 160.459 15.8413 162.27 15.1434C164.103 14.4236 166.013 14.0638 167.999 14.0638C170.137 14.0638 172.156 14.4782 174.054 15.307C175.953 16.114 177.611 17.2372 179.03 18.6767C180.448 20.0944 181.561 21.7629 182.369 23.6823C183.198 25.5798 183.612 27.6082 183.612 29.7674V45.3215C183.612 47.7892 181.612 49.7896 179.144 49.7896C176.677 49.7896 174.676 47.7892 174.676 45.3215V29.7674C174.676 28.8514 174.502 27.9899 174.153 27.1829C173.803 26.3541 173.323 25.6343 172.712 25.0236C172.101 24.4129 171.392 23.9331 170.585 23.5841C169.777 23.2351 168.915 23.0606 167.999 23.0606C167.06 23.0606 166.177 23.2351 165.347 23.5841C164.518 23.9331 163.798 24.4129 163.187 25.0236C162.576 25.6343 162.096 26.3541 161.747 27.1829C161.398 27.9899 161.223 28.8514 161.223 29.7674V45.3215Z" fill="white"/>
<path d="M195.658 45.3215C195.658 47.7892 193.658 49.7896 191.19 49.7896C188.723 49.7896 186.722 47.7892 186.722 45.3215V16.2336C186.722 15.4147 187.386 14.7508 188.205 14.7508C188.635 14.7508 189.044 14.9377 189.326 15.263L191.828 18.1533C193.269 16.8446 194.894 15.8413 196.706 15.1434C198.539 14.4236 200.448 14.0638 202.434 14.0638C204.573 14.0638 206.591 14.4782 208.49 15.307C210.388 16.114 212.047 17.2372 213.465 18.6767C214.884 20.0944 215.996 21.7629 216.804 23.6823C217.633 25.5798 218.048 27.6082 218.048 29.7674V45.3215C218.048 47.7892 216.047 49.7896 213.58 49.7896C211.112 49.7896 209.112 47.7892 209.112 45.3215V29.7674C209.112 28.8514 208.937 27.9899 208.588 27.1829C208.239 26.3541 207.759 25.6343 207.148 25.0236C206.537 24.4129 205.827 23.9331 205.02 23.5841C204.213 23.2351 203.351 23.0606 202.434 23.0606C201.496 23.0606 200.612 23.2351 199.783 23.5841C198.953 23.9331 198.233 24.4129 197.622 25.0236C197.011 25.6343 196.531 26.3541 196.182 27.1829C195.833 27.9899 195.658 28.8514 195.658 29.7674V45.3215Z" fill="white"/>
<defs>
<filter id="filter0_i_4_364" x="75.1758" y="2.16797" width="25.9229" height="50.2693" filterUnits="userSpaceOnUse" color-interpolation-filters="sRGB">
<feFlood flood-opacity="0" result="BackgroundImageFix"/>
<feBlend mode="normal" in="SourceGraphic" in2="BackgroundImageFix" result="shape"/>
<feColorMatrix in="SourceAlpha" type="matrix" values="0 0 0 0 0 0 0 0 0 0 0 0 0 0 0 0 0 0 127 0" result="hardAlpha"/>
<feOffset dy="2.64476"/>
<feGaussianBlur stdDeviation="2.36139"/>
<feComposite in2="hardAlpha" operator="arithmetic" k2="-1" k3="1"/>
<feColorMatrix type="matrix" values="0 0 0 0 1 0 0 0 0 1 0 0 0 0 1 0 0 0 0.25 0"/>
<feBlend mode="normal" in2="shape" result="effect1_innerShadow_4_364"/>
</filter>
<linearGradient id="paint0_linear_4_364" x1="90.5385" y1="29.4601" x2="82.1571" y2="48.5181" gradientUnits="userSpaceOnUse">
<stop stop-color="#C18B00"/>
<stop offset="0.885134" stop-color="#FFB906"/>
<stop offset="1" stop-color="#BE8A02"/>
</linearGradient>
<linearGradient id="paint1_linear_4_364" x1="91.3458" y1="1.70602" x2="69.41" y2="25.3558" gradientUnits="userSpaceOnUse">
<stop stop-color="#EFB727"/>
<stop offset="0.431775" stop-color="#EAAC0C"/>
<stop offset="0.889324" stop-color="#EAB01A"/>
<stop offset="1" stop-color="#C68E01"/>
</linearGradient>
</defs>
</svg>
